<svg width="24" height="24" viewBox="0 0 24 24" fill="none" xmlns="http://www.w3.org/2000/svg">
<path d="M20.111 23.5021H3.70099C3.23099 23.5021 2.8209 23.1721 2.7209 22.7121L0.0208932 10.3421C-0.0391068 10.0421 0.0308977 9.74208 0.220898 9.50208C0.410898 9.26208 0.700897 9.13208 1.0009 9.13208H22.821C23.121 9.13208 23.411 9.27208 23.601 9.50208C23.791 9.74208 23.861 10.0421 23.801 10.3421L21.091 22.7121C20.991 23.1721 20.581 23.5021 20.111 23.5021ZM4.511 21.5021H19.311L21.581 11.1321H2.24089L4.511 21.5021Z" fill="black"/>
<path d="M3.861 11.1321C3.671 11.1321 3.471 11.0721 3.301 10.9621C2.8409 10.6521 2.7208 10.0321 3.031 9.57209L9.171 0.44209C9.481 -0.0179098 10.101 -0.13791 10.561 0.17209C11.021 0.48209 11.141 1.10209 10.831 1.56209L4.691 10.6921C4.501 10.9721 4.181 11.1321 3.861 11.1321Z" fill="black"/>
<path d="M19.951 10.9321C19.721 10.9321 19.481 10.8521 19.291 10.6821L11.981 4.32208C11.561 3.96208 11.521 3.33208 11.881 2.91208C12.241 2.49208 12.881 2.45208 13.291 2.81208L20.601 9.17208C21.021 9.53208 21.061 10.1621 20.701 10.5821C20.511 10.8121 20.231 10.9321 19.951 10.9321Z" fill="black"/>
<path d="M8.781 19.9421C8.321 19.9421 7.91101 19.6221 7.80101 19.1521L6.751 14.3621C6.631 13.8221 6.97101 13.2921 7.51101 13.1721C8.05101 13.0521 8.581 13.3921 8.701 13.9321L9.751 18.7221C9.871 19.2621 9.531 19.7921 8.991 19.9121C8.921 19.9421 8.851 19.9421 8.781 19.9421Z" fill="black"/>
<path d="M15.041 19.9421C14.971 19.9421 14.901 19.9321 14.831 19.9221C14.291 19.8021 13.951 19.2721 14.071 18.7321L15.121 13.9421C15.241 13.4021 15.771 13.0621 16.311 13.1821C16.851 13.3021 17.191 13.8321 17.071 14.3721L16.021 19.1621C15.921 19.6321 15.501 19.9421 15.041 19.9421Z" fill="black"/>
</svg>
