<svg width="26" height="24" viewBox="0 0 26 24" fill="none" xmlns="http://www.w3.org/2000/svg">
<path d="M13.091 23.52C12.831 23.52 12.581 23.42 12.381 23.23L2.61099 13.46C-0.419007 10.37 -0.389004 5.38001 2.661 2.33001C4.161 0.830009 6.14101 0.0100098 8.25101 0.0100098C10.031 0.0200098 11.711 0.600009 13.081 1.66001C16.171 -0.739991 20.671 -0.50999 23.511 2.33001C25.001 3.82001 25.821 5.80001 25.831 7.91001C25.831 10 25.021 11.96 23.561 13.45L13.791 23.22C13.611 23.42 13.351 23.52 13.091 23.52ZM8.25101 2.01001C6.68101 2.01001 5.20099 2.63001 4.08099 3.74001C1.80099 6.02001 1.781 9.74001 4.041 12.05L13.091 21.1L22.141 12.05C23.231 10.94 23.831 9.48001 23.831 7.92001C23.831 6.34001 23.211 4.86001 22.101 3.75001C19.811 1.46001 16.081 1.45001 13.781 3.71001C13.391 4.09001 12.771 4.09001 12.381 3.71001C11.281 2.62001 9.82101 2.02001 8.25101 2.01001Z" fill="black"/>
</svg>
