<svg width="19" height="24" viewBox="0 0 19 24" fill="none" xmlns="http://www.w3.org/2000/svg">
<path d="M17.041 23.52C16.491 23.52 16.041 23.07 16.041 22.52V19.35C16.041 17.54 15.331 15.84 14.051 14.55C13.501 14.01 12.881 13.57 12.201 13.24C11.871 13.08 11.661 12.77 11.631 12.41C11.601 12.05 11.781 11.7 12.081 11.51C13.551 10.55 14.421 8.93 14.421 7.18C14.421 4.33 12.101 2.02 9.261 2.02C6.411 2.02 4.091 4.34 4.091 7.18C4.091 8.93 4.97099 10.55 6.44099 11.51C6.74099 11.71 6.91101 12.05 6.89101 12.41C6.87101 12.77 6.651 13.09 6.321 13.24C3.991 14.36 2.481 16.75 2.481 19.34V22.51C2.481 23.06 2.031 23.51 1.481 23.51C0.931003 23.51 0.481003 23.06 0.481003 22.51V19.34C0.481003 16.49 1.891 13.83 4.161 12.2C2.851 10.87 2.091 9.07 2.091 7.16C2.091 3.21 5.311 0 9.261 0C13.211 0 16.421 3.21 16.421 7.16C16.421 9.07 15.671 10.87 14.361 12.2C14.751 12.48 15.111 12.78 15.461 13.12C17.121 14.78 18.041 16.99 18.041 19.33V22.5C18.041 23.07 17.591 23.52 17.041 23.52Z" fill="black"/>
</svg>
