<svg width="24" height="24" viewBox="0 0 24 24" fill="none" xmlns="http://www.w3.org/2000/svg">
<path d="M10.911 21.42C5.011 21.42 0.210999 16.62 0.210999 10.72C0.210999 4.81999 5.011 0.019989 10.911 0.019989C16.811 0.019989 21.611 4.81999 21.611 10.72C21.611 16.62 16.811 21.42 10.911 21.42ZM10.911 2.00999C6.111 2.00999 2.211 5.90999 2.211 10.71C2.211 15.51 6.111 19.41 10.911 19.41C15.711 19.41 19.611 15.51 19.611 10.71C19.611 5.90999 15.711 2.00999 10.911 2.00999Z" fill="black"/>
<path d="M22.741 23.53C22.481 23.53 22.231 23.43 22.031 23.24L17.071 18.28C16.681 17.89 16.681 17.26 17.071 16.87C17.461 16.48 18.091 16.48 18.481 16.87L23.441 21.83C23.831 22.22 23.831 22.85 23.441 23.24C23.251 23.43 22.991 23.53 22.741 23.53Z" fill="black"/>
</svg>
